# xmcd
# Copyright (C) 1995-1998 Ti Kan
#
# Track frame offsets:
#       150
#       11277
#       28317
#       40197
#       49405
#       70180
#       83500
#       94090
#       108140
#       118745
#       137052
#       143812
#       156952
#       170500
#       181130
#       195362
#
# Disc length: 2751 seconds
#
# Revision: 0
# Processed by: cddbd v1.5.2PL0 Copyright (c) Steve Scherf et al.
# Submitted via: CD-Import v1.0
#
DISCID=ce0abd10
DTITLE=Manu Chao - Clandestino
DYEAR=98
DGENRE=Salsa
TTITLE0=Clandestino
TTITLE1=Desaparecido
TTITLE2=Bongo Bong
TTITLE3=Je Ne T'aime Plus
TTITLE4=Mentira...
TTITLE5=Lagrimas De Oro
TTITLE6=Mama Call
TTITLE7=Luna Y Sol
TTITLE8=Por El Suelo
TTITLE9=Welcome To Tijuana
TTITLE10=Dia Luna... Dia Pena
TTITLE11=Malegria
TTITLE12=La Vie A 2
TTITLE13=Minha Galera
TTITLE14=La Despedida
TTITLE15=El Viento
EXTD=
EXTT0=
EXTT1=
EXTT2=
EXTT3=
EXTT4=
EXTT5=
EXTT6=
EXTT7=
EXTT8=
EXTT9=
EXTT10=
EXTT11=
EXTT12=
EXTT13=
EXTT14=
EXTT15=
PLAYORDER=
